<svg xmlns="http://www.w3.org/2000/svg" viewBox="0 0 900 850">
  <defs>
    <filter id="shadow" x="-20%" y="-20%" width="140%" height="140%">
      <feDropShadow dx="2" dy="3" stdDeviation="4" flood-opacity="0.12"/>
    </filter>
    <linearGradient id="headerGrad" x1="0%" y1="0%" x2="100%" y2="0%">
      <stop offset="0%" style="stop-color:#667eea"/>
      <stop offset="100%" style="stop-color:#764ba2"/>
    </linearGradient>
    <linearGradient id="phase1" x1="0%" y1="0%" x2="0%" y2="100%">
      <stop offset="0%" style="stop-color:#E8F5E9"/>
      <stop offset="100%" style="stop-color:#C8E6C9"/>
    </linearGradient>
    <linearGradient id="phase2" x1="0%" y1="0%" x2="0%" y2="100%">
      <stop offset="0%" style="stop-color:#E3F2FD"/>
      <stop offset="100%" style="stop-color:#BBDEFB"/>
    </linearGradient>
    <linearGradient id="phase3" x1="0%" y1="0%" x2="0%" y2="100%">
      <stop offset="0%" style="stop-color:#FFF3E0"/>
      <stop offset="100%" style="stop-color:#FFE0B2"/>
    </linearGradient>
    <linearGradient id="outputGrad" x1="0%" y1="0%" x2="0%" y2="100%">
      <stop offset="0%" style="stop-color:#F3E5F5"/>
      <stop offset="100%" style="stop-color:#E1BEE7"/>
    </linearGradient>
  </defs>
  
  <!-- Background -->
  <rect width="900" height="850" fill="#fafafa"/>
  
  <!-- Header -->
  <rect x="0" y="0" width="900" height="70" fill="url(#headerGrad)"/>
  <text x="450" y="35" font-family="Arial, sans-serif" font-size="26" font-weight="bold" fill="white" text-anchor="middle">Writing Style Clone</text>
  <text x="450" y="55" font-family="Arial, sans-serif" font-size="12" fill="rgba(255,255,255,0.9)" text-anchor="middle">Train AI to write in your authentic voice • ~30 min setup</text>
  
  <!-- INSTALLATION SECTION -->
  <text x="450" y="100" font-family="Arial, sans-serif" font-size="14" font-weight="bold" fill="#333" text-anchor="middle">📦 INSTALLATION</text>
  
  <!-- Install Step 1 -->
  <g transform="translate(100, 115)">
    <rect x="0" y="0" width="320" height="70" rx="10" fill="white" filter="url(#shadow)"/>
    <circle cx="25" cy="35" r="14" fill="#667eea"/>
    <text x="25" y="40" font-family="Arial, sans-serif" font-size="12" font-weight="bold" fill="white" text-anchor="middle">1</text>
    <text x="50" y="28" font-family="Arial, sans-serif" font-size="12" font-weight="bold" fill="#333">Clone the Repository</text>
    <text x="50" y="48" font-family="monospace" font-size="9" fill="#666">cd ~/Documents</text>
    <text x="50" y="60" font-family="monospace" font-size="9" fill="#666">git clone github.com/jrenaldi79/writing-style</text>
  </g>
  
  <!-- Install Step 2 -->
  <g transform="translate(480, 115)">
    <rect x="0" y="0" width="320" height="70" rx="10" fill="white" filter="url(#shadow)"/>
    <circle cx="25" cy="35" r="14" fill="#667eea"/>
    <text x="25" y="40" font-family="Arial, sans-serif" font-size="12" font-weight="bold" fill="white" text-anchor="middle">2</text>
    <text x="50" y="28" font-family="Arial, sans-serif" font-size="12" font-weight="bold" fill="#333">Create ChatWise Assistant</text>
    <text x="50" y="48" font-family="Arial, sans-serif" font-size="9" fill="#666">Name: "Writing Style Clone"</text>
    <text x="50" y="60" font-family="Arial, sans-serif" font-size="9" fill="#666">System prompt: paste CHATWISE_PROMPT.md</text>
  </g>
  
  <!-- Divider -->
  <line x1="100" y1="205" x2="800" y2="205" stroke="#eee" stroke-width="2"/>
  
  <!-- PHASES SECTION -->
  <text x="450" y="235" font-family="Arial, sans-serif" font-size="14" font-weight="bold" fill="#333" text-anchor="middle">🔄 THREE PHASES</text>
  
  <!-- Key concept box -->
  <rect x="250" y="250" width="400" height="40" rx="8" fill="#FFF3E0" stroke="#FF9800" stroke-width="2"/>
  <text x="450" y="275" font-family="Arial, sans-serif" font-size="11" fill="#E65100" text-anchor="middle">💡 Start a NEW conversation for each phase</text>
  
  <!-- PHASE 1 -->
  <g transform="translate(180, 310)">
    <rect x="0" y="0" width="540" height="85" rx="10" fill="url(#phase1)" filter="url(#shadow)"/>
    <circle cx="35" cy="42" r="20" fill="#4CAF50"/>
    <text x="35" y="48" font-family="Arial, sans-serif" font-size="16" font-weight="bold" fill="white" text-anchor="middle">1</text>
    <text x="70" y="30" font-family="Arial, sans-serif" font-size="14" font-weight="bold" fill="#2E7D32">SETUP</text>
    <rect x="130" y="20" width="55" height="18" rx="9" fill="#E8F5E9" stroke="#4CAF50"/>
    <text x="157" y="33" font-family="Arial, sans-serif" font-size="8" font-weight="bold" fill="#2E7D32" text-anchor="middle">New Chat</text>
    <text x="200" y="30" font-family="Arial, sans-serif" font-size="10" fill="#666">5 min • Once</text>
    <rect x="70" y="42" width="200" height="22" rx="4" fill="#fff" stroke="#4CAF50"/>
    <text x="170" y="57" font-family="monospace" font-size="10" fill="#333" text-anchor="middle">"Clone my writing style"</text>
    <text x="70" y="78" font-family="Arial, sans-serif" font-size="10" fill="#555">Creates workspace, initializes project</text>
  </g>
  
  <!-- Arrow -->
  <path d="M 450 395 L 450 415" stroke="#888" stroke-width="2"/>
  <polygon points="450,425 445,415 455,415" fill="#888"/>
  
  <!-- PHASE 2 -->
  <g transform="translate(180, 435)">
    <rect x="0" y="0" width="540" height="95" rx="10" fill="url(#phase2)" filter="url(#shadow)"/>
    <circle cx="35" cy="47" r="20" fill="#2196F3"/>
    <text x="35" y="53" font-family="Arial, sans-serif" font-size="16" font-weight="bold" fill="white" text-anchor="middle">2</text>
    <text x="70" y="30" font-family="Arial, sans-serif" font-size="14" font-weight="bold" fill="#1565C0">ANALYSIS</text>
    <rect x="160" y="20" width="55" height="18" rx="9" fill="#E3F2FD" stroke="#2196F3"/>
    <text x="187" y="33" font-family="Arial, sans-serif" font-size="8" font-weight="bold" fill="#1565C0" text-anchor="middle">New Chat</text>
    <text x="230" y="30" font-family="Arial, sans-serif" font-size="10" fill="#666">15-20 min • Monthly</text>
    <rect x="70" y="42" width="280" height="22" rx="4" fill="#fff" stroke="#2196F3"/>
    <text x="210" y="57" font-family="monospace" font-size="10" fill="#333" text-anchor="middle">"Continue cloning my writing style"</text>
    <text x="70" y="78" font-family="Arial, sans-serif" font-size="10" fill="#555">Fetches emails/LinkedIn, discovers personas</text>
    <text x="70" y="90" font-family="Arial, sans-serif" font-size="10" fill="#555">Run multiple batches → 50+ samples recommended</text>
  </g>
  
  <!-- Arrow -->
  <path d="M 450 530 L 450 550" stroke="#888" stroke-width="2"/>
  <polygon points="450,560 445,550 455,550" fill="#888"/>
  
  <!-- PHASE 3 -->
  <g transform="translate(180, 570)">
    <rect x="0" y="0" width="540" height="85" rx="10" fill="url(#phase3)" filter="url(#shadow)"/>
    <circle cx="35" cy="42" r="20" fill="#FF9800"/>
    <text x="35" y="48" font-family="Arial, sans-serif" font-size="16" font-weight="bold" fill="white" text-anchor="middle">3</text>
    <text x="70" y="30" font-family="Arial, sans-serif" font-size="14" font-weight="bold" fill="#E65100">GENERATE</text>
    <rect x="165" y="20" width="55" height="18" rx="9" fill="#FFF3E0" stroke="#FF9800"/>
    <text x="192" y="33" font-family="Arial, sans-serif" font-size="8" font-weight="bold" fill="#E65100" text-anchor="middle">New Chat</text>
    <text x="235" y="30" font-family="Arial, sans-serif" font-size="10" fill="#666">5 min • Quarterly</text>
    <rect x="70" y="42" width="280" height="22" rx="4" fill="#fff" stroke="#FF9800"/>
    <text x="210" y="57" font-family="monospace" font-size="10" fill="#333" text-anchor="middle">"Generate my writing assistant"</text>
    <text x="70" y="78" font-family="Arial, sans-serif" font-size="10" fill="#555">Creates personalized system prompt with all your voices</text>
  </g>
  
  <!-- Arrow to output -->
  <path d="M 450 655 L 450 675" stroke="#888" stroke-width="2"/>
  <polygon points="450,685 445,675 455,675" fill="#888"/>
  
  <!-- OUTPUT -->
  <g transform="translate(180, 695)">
    <rect x="0" y="0" width="540" height="70" rx="10" fill="url(#outputGrad)" filter="url(#shadow)" stroke="#9C27B0" stroke-width="2"/>
    <text x="270" y="28" font-family="Arial, sans-serif" font-size="14" font-weight="bold" fill="#6A1B9A" text-anchor="middle">🎯 YOUR WRITING ASSISTANT</text>
    <text x="270" y="46" font-family="Arial, sans-serif" font-size="10" fill="#333" text-anchor="middle">~/Documents/my-writing-style/prompts/writing_assistant.md</text>
    <text x="270" y="62" font-family="Arial, sans-serif" font-size="10" fill="#666" text-anchor="middle">Use with ChatGPT, Claude, or any AI writing tool</text>
  </g>
  
  <!-- Footer -->
  <text x="450" y="800" font-family="Arial, sans-serif" font-size="10" fill="#999" text-anchor="middle">github.com/jrenaldi79/writing-style</text>
  
</svg>
